<?xml version="1.0" encoding="UTF-8"?>
<!DOCTYPE svg PUBLIC "-//W3C//DTD SVG 1.1//EN" "http://www.w3.org/Graphics/SVG/1.1/DTD/svg11.dtd">
<svg xmlns="http://www.w3.org/2000/svg" version="1.1" width="256px" height="256px" style="shape-rendering:geometricPrecision; text-rendering:geometricPrecision; image-rendering:optimizeQuality; fill-rule:evenodd; clip-rule:evenodd" xmlns:xlink="http://www.w3.org/1999/xlink">
<g><path style="opacity:1" fill="#fedb22" d="M -0.5,-0.5 C 18.5,-0.5 37.5,-0.5 56.5,-0.5C 53.6417,0.165957 50.6417,0.832624 47.5,1.5C 48.0522,3.0026 48.0522,4.66927 47.5,6.5C 51.5,6.83333 51.5,7.16667 47.5,7.5C 47.3505,8.55198 47.5172,9.55198 48,10.5C 50.3333,9.83333 52.6667,9.16667 55,8.5C 55.5,9 56,9.5 56.5,10C 53.7111,10.2414 51.0444,10.908 48.5,12C 47.1667,12.6667 47.1667,13.3333 48.5,14C 49.5,14.1667 50.5,14.3333 51.5,14.5C 57.0541,12.9684 62.7208,12.1351 68.5,12C 69.1552,10.5134 70.1552,9.34673 71.5,8.5C 73.4587,10.2447 74.792,12.4114 75.5,15C 74.1667,15.3333 72.8333,15.6667 71.5,16C 74.1667,16.6667 74.1667,17.3333 71.5,18C 72.056,18.3826 72.3893,18.8826 72.5,19.5C 69.5531,18.0266 66.5531,16.5266 63.5,15C 59.4645,14.1501 55.6312,14.6501 52,16.5C 50.2367,21.4453 50.2367,26.4453 52,31.5C 59.8911,51.4188 66.0578,71.7522 70.5,92.5C 62.8712,96.7061 60.5379,103.039 63.5,111.5C 63.5,111.833 63.5,112.167 63.5,112.5C 55.6992,116.909 48.3658,122.076 41.5,128C 37.9104,131.754 34.9104,135.921 32.5,140.5C 31.5345,148.916 35.2011,154.582 43.5,157.5C 44.287,159.104 45.6203,159.771 47.5,159.5C 49.1244,161.791 51.1244,163.791 53.5,165.5C 49.5385,168.577 49.5385,171.744 53.5,175C 57.5458,177.174 61.8791,178.007 66.5,177.5C 66.3359,180.187 66.5026,182.854 67,185.5C 67.8047,189.776 69.6381,193.443 72.5,196.5C 73.9339,199.111 75.6006,201.611 77.5,204C 76.7665,205.766 76.4332,207.599 76.5,209.5C 72.9901,214.464 73.9901,218.131 79.5,220.5C 80.3065,221.728 81.3065,222.728 82.5,223.5C 81.8861,230.721 82.7195,237.721 85,244.5C 87.0411,246.974 89.7077,247.974 93,247.5C 95.8245,247.697 98.3245,247.031 100.5,245.5C 99.335,248.59 97.0017,249.924 93.5,249.5C 93.3862,251.718 92.7196,253.718 91.5,255.5C 60.8333,255.5 30.1667,255.5 -0.5,255.5C -0.5,170.167 -0.5,84.8333 -0.5,-0.5 Z"/></g>
<g><path style="opacity:1" fill="#fedb22" d="M 56.5,-0.5 C 122.833,-0.5 189.167,-0.5 255.5,-0.5C 255.5,84.8333 255.5,170.167 255.5,255.5C 200.833,255.5 146.167,255.5 91.5,255.5C 92.7196,253.718 93.3862,251.718 93.5,249.5C 97.0017,249.924 99.335,248.59 100.5,245.5C 104.167,240.167 107.833,234.833 111.5,229.5C 111.5,229.167 111.5,228.833 111.5,228.5C 111.833,228.5 112.167,228.5 112.5,228.5C 116.376,227.966 120.042,226.8 123.5,225C 124.288,221.924 124.788,218.758 125,215.5C 126.224,212.527 128.224,211.86 131,213.5C 130.106,220.101 132.939,223.434 139.5,223.5C 141.395,228.955 143.562,234.288 146,239.5C 148.909,242.394 152.409,243.227 156.5,242C 158.249,240.708 160.082,239.542 162,238.5C 164.802,232.586 167.302,226.586 169.5,220.5C 170.338,220.158 170.672,219.492 170.5,218.5C 174.086,216.42 177.253,213.754 180,210.5C 180.499,205.845 180.666,201.179 180.5,196.5C 183.126,189.781 185.292,182.781 187,175.5C 187.792,168.753 187.626,162.086 186.5,155.5C 185.82,151.881 185.32,148.214 185,144.5C 183.716,141.47 182.549,138.47 181.5,135.5C 193.209,135.26 204.209,132.427 214.5,127C 218.092,124.079 220.925,120.579 223,116.5C 223.629,112.129 223.463,107.796 222.5,103.5C 222.253,100.061 222.586,96.728 223.5,93.5C 225.67,90.4939 227.336,87.1605 228.5,83.5C 227.823,80.1327 226.157,77.466 223.5,75.5C 223.915,73.2532 224.582,71.0865 225.5,69C 225.472,67.9302 225.139,67.0968 224.5,66.5C 224.443,65.391 224.11,64.391 223.5,63.5C 222.611,61.264 221.278,59.264 219.5,57.5C 221.108,54.6179 222.441,51.6179 223.5,48.5C 232.533,43.9086 232.7,39.2419 224,34.5C 221.807,29.2178 218.14,25.2178 213,22.5C 211.752,19.421 209.919,16.7543 207.5,14.5C 194.189,12.5843 180.856,11.9176 167.5,12.5C 163.477,11.4819 159.477,10.4819 155.5,9.5C 144.604,9.68403 133.771,9.68403 123,9.5C 122.735,15.5832 121.902,21.5832 120.5,27.5C 121.333,37.1502 121.999,46.8169 122.5,56.5C 121.209,56.2627 120.209,56.596 119.5,57.5C 115.22,57.4458 112.886,59.4458 112.5,63.5C 112.167,63.5 111.833,63.5 111.5,63.5C 107.269,55.9376 101.936,49.2709 95.5,43.5C 94.4918,41.4561 93.4918,39.4561 92.5,37.5C 91.656,35.2407 89.9893,34.2407 87.5,34.5C 87.631,33.7611 87.4643,33.0944 87,32.5C 81.972,28.3011 77.1387,23.9678 72.5,19.5C 72.3893,18.8826 72.056,18.3826 71.5,18C 74.1667,17.3333 74.1667,16.6667 71.5,16C 72.8333,15.6667 74.1667,15.3333 75.5,15C 74.792,12.4114 73.4587,10.2447 71.5,8.5C 70.1552,9.34673 69.1552,10.5134 68.5,12C 62.7208,12.1351 57.0541,12.9684 51.5,14.5C 50.5,14.3333 49.5,14.1667 48.5,14C 47.1667,13.3333 47.1667,12.6667 48.5,12C 51.0444,10.908 53.7111,10.2414 56.5,10C 56,9.5 55.5,9 55,8.5C 52.6667,9.16667 50.3333,9.83333 48,10.5C 47.5172,9.55198 47.3505,8.55198 47.5,7.5C 51.5,7.16667 51.5,6.83333 47.5,6.5C 48.0522,4.66927 48.0522,3.0026 47.5,1.5C 50.6417,0.832624 53.6417,0.165957 56.5,-0.5 Z"/></g>
<g><path style="opacity:1" fill="#f7e054" d="M 188.5,67.5 C 188.167,67.5 187.833,67.5 187.5,67.5C 185.319,67.7163 183.653,66.883 182.5,65C 181.167,64.3333 179.833,64.3333 178.5,65C 173.262,69.4536 173.262,73.787 178.5,78C 177.3,79.7027 177.633,81.2027 179.5,82.5C 178.152,82.4496 176.652,82.783 175,83.5C 173.877,87.0553 175.211,89.0553 179,89.5C 180.531,88.7827 181.864,87.7827 183,86.5C 184.44,87.1476 185.94,87.4809 187.5,87.5C 188.069,91.3293 187.402,94.6627 185.5,97.5C 181.314,96.0993 176.981,95.266 172.5,95C 167.756,92.3108 162.756,91.8108 157.5,93.5C 153.885,93.845 150.552,93.1783 147.5,91.5C 143.434,91.693 139.434,91.3597 135.5,90.5C 132.103,89.8018 128.603,89.1352 125,88.5C 123.923,79.4968 123.423,70.4968 123.5,61.5C 122.76,50.1341 122.427,38.8008 122.5,27.5C 123.958,21.5902 124.624,15.5902 124.5,9.5C 131.896,10.021 139.229,11.021 146.5,12.5C 153.254,11.1087 159.92,11.4421 166.5,13.5C 172.065,12.3092 177.565,12.6425 183,14.5C 185.016,14.2597 187.016,13.9263 189,13.5C 194.5,15.0975 200,15.7642 205.5,15.5C 206.583,16.365 206.749,17.365 206,18.5C 201.72,21.7801 199.72,26.1134 200,31.5C 197.89,35.4911 196.89,39.8244 197,44.5C 196.085,45.3279 195.419,46.3279 195,47.5C 194.667,51.1667 194.333,54.8333 194,58.5C 192.293,60.9088 191.46,63.5755 191.5,66.5C 190.209,66.2627 189.209,66.596 188.5,67.5 Z"/></g>
<g><path style="opacity:1" fill="#1d1008" d="M 85.5,34.5 C 86.1667,34.5 86.8333,34.5 87.5,34.5C 89.9893,34.2407 91.656,35.2407 92.5,37.5C 88.3656,38.4849 84.0323,38.8182 79.5,38.5C 79.5,37.1667 79.5,35.8333 79.5,34.5C 81.5,34.5 83.5,34.5 85.5,34.5 Z"/></g>
<g><path style="opacity:1" fill="#ece077" d="M 216.5,56.5 C 215.391,56.4431 214.391,56.1098 213.5,55.5C 213.99,53.0516 213.157,51.385 211,50.5C 208.926,51.0717 207.76,52.405 207.5,54.5C 206.061,55.9885 205.395,57.8218 205.5,60C 206.471,65.4126 208.138,70.5793 210.5,75.5C 209.5,76.1667 208.5,76.8333 207.5,77.5C 205.86,74.8508 204.193,72.1841 202.5,69.5C 203.092,66.8728 203.425,64.2062 203.5,61.5C 199.149,60.533 196.815,62.1996 196.5,66.5C 195.022,66.762 193.689,66.4287 192.5,65.5C 193.333,63.8333 194.167,62.1667 195,60.5C 196.035,52.1061 197.368,43.7727 199,35.5C 201.875,32.4575 203.208,28.7908 203,24.5C 204.61,22.269 206.443,20.269 208.5,18.5C 211.477,23.311 215.311,27.311 220,30.5C 222.354,34.6692 225.188,38.3358 228.5,41.5C 228.392,42.4419 228.059,43.2753 227.5,44C 223.23,45.6786 220.73,48.8452 220,53.5C 218.482,54.1634 217.315,55.1634 216.5,56.5 Z"/></g>
<g><path style="opacity:1" fill="#e06a22" d="M 95.5,43.5 C 101.936,49.2709 107.269,55.9376 111.5,63.5C 110.833,63.5 110.167,63.5 109.5,63.5C 104.833,56.8333 100.167,50.1667 95.5,43.5 Z"/></g>
<g><path style="opacity:1" fill="#4d4329" d="M 207.5,54.5 C 209.621,54.3253 211.621,54.6586 213.5,55.5C 214.391,56.1098 215.391,56.4431 216.5,56.5C 218.5,59.1667 220.833,61.5 223.5,63.5C 224.11,64.391 224.443,65.391 224.5,66.5C 221.369,63.8712 218.369,61.0379 215.5,58C 213.147,56.0363 210.647,55.5363 208,56.5C 206.959,63.2614 208.459,69.4281 212.5,75C 213.793,75.49 215.127,75.6567 216.5,75.5C 216.5,75.8333 216.5,76.1667 216.5,76.5C 214.379,76.6747 212.379,76.3414 210.5,75.5C 208.138,70.5793 206.471,65.4126 205.5,60C 205.395,57.8218 206.061,55.9885 207.5,54.5 Z"/></g>
<g><path style="opacity:1" fill="#4d3f2a" d="M 119.5,57.5 C 120.167,57.5 120.5,57.8333 120.5,58.5C 115.139,58.5642 113.139,61.2309 114.5,66.5C 113.833,65.5 113.167,64.5 112.5,63.5C 112.886,59.4458 115.22,57.4458 119.5,57.5 Z"/></g>
<g><path style="opacity:1" fill="#e0622c" d="M 72.5,19.5 C 77.1387,23.9678 81.972,28.3011 87,32.5C 87.4643,33.0944 87.631,33.7611 87.5,34.5C 86.8333,34.5 86.1667,34.5 85.5,34.5C 80.6279,28.4612 74.9612,23.2945 68.5,19C 57.175,13.2185 52.3417,16.3852 54,28.5C 59,44.5 64,60.5 69,76.5C 71.0417,84.4197 72.5417,92.4197 73.5,100.5C 71.7202,99.0101 71.0535,97.0101 71.5,94.5C 71.6716,93.5084 71.3382,92.8417 70.5,92.5C 66.0578,71.7522 59.8911,51.4188 52,31.5C 50.2367,26.4453 50.2367,21.4453 52,16.5C 55.6312,14.6501 59.4645,14.1501 63.5,15C 66.5531,16.5266 69.5531,18.0266 72.5,19.5 Z"/></g>
<g><path style="opacity:1" fill="#ae951e" d="M 223.5,63.5 C 220.833,61.5 218.5,59.1667 216.5,56.5C 217.315,55.1634 218.482,54.1634 220,53.5C 220.73,48.8452 223.23,45.6786 227.5,44C 228.059,43.2753 228.392,42.4419 228.5,41.5C 225.188,38.3358 222.354,34.6692 220,30.5C 215.311,27.311 211.477,23.311 208.5,18.5C 206.443,20.269 204.61,22.269 203,24.5C 203.208,28.7908 201.875,32.4575 199,35.5C 197.368,43.7727 196.035,52.1061 195,60.5C 194.167,62.1667 193.333,63.8333 192.5,65.5C 193.689,66.4287 195.022,66.762 196.5,66.5C 196.815,62.1996 199.149,60.533 203.5,61.5C 203.425,64.2062 203.092,66.8728 202.5,69.5C 198.076,67.787 193.409,67.1204 188.5,67.5C 189.209,66.596 190.209,66.2627 191.5,66.5C 191.46,63.5755 192.293,60.9088 194,58.5C 194.333,54.8333 194.667,51.1667 195,47.5C 195.419,46.3279 196.085,45.3279 197,44.5C 196.89,39.8244 197.89,35.4911 200,31.5C 199.72,26.1134 201.72,21.7801 206,18.5C 206.749,17.365 206.583,16.365 205.5,15.5C 200,15.7642 194.5,15.0975 189,13.5C 187.016,13.9263 185.016,14.2597 183,14.5C 177.565,12.6425 172.065,12.3092 166.5,13.5C 159.92,11.4421 153.254,11.1087 146.5,12.5C 139.229,11.021 131.896,10.021 124.5,9.5C 124.624,15.5902 123.958,21.5902 122.5,27.5C 122.427,38.8008 122.76,50.1341 123.5,61.5C 122.549,60.0813 122.216,58.4147 122.5,56.5C 121.999,46.8169 121.333,37.1502 120.5,27.5C 121.902,21.5832 122.735,15.5832 123,9.5C 133.771,9.68403 144.604,9.68403 155.5,9.5C 159.477,10.4819 163.477,11.4819 167.5,12.5C 180.856,11.9176 194.189,12.5843 207.5,14.5C 209.919,16.7543 211.752,19.421 213,22.5C 218.14,25.2178 221.807,29.2178 224,34.5C 232.7,39.2419 232.533,43.9086 223.5,48.5C 222.441,51.6179 221.108,54.6179 219.5,57.5C 221.278,59.264 222.611,61.264 223.5,63.5 Z"/></g>
<g><path style="opacity:1" fill="#918851" d="M 167.5,52.5 C 169.265,53.4614 171.265,53.7947 173.5,53.5C 172.688,54.9931 171.355,55.6598 169.5,55.5C 167.443,55.5643 165.777,54.8976 164.5,53.5C 165.609,53.4431 166.609,53.1098 167.5,52.5 Z"/></g>
<g><path style="opacity:1" fill="#9d8d29" d="M 213.5,55.5 C 211.621,54.6586 209.621,54.3253 207.5,54.5C 207.76,52.405 208.926,51.0717 211,50.5C 213.157,51.385 213.99,53.0516 213.5,55.5 Z"/></g>
<g><path style="opacity:1" fill="#9a8750" d="M 155.5,47.5 C 154.538,51.1461 152.205,52.3128 148.5,51C 147.944,50.6174 147.611,50.1174 147.5,49.5C 148.695,49.6775 149.862,50.0109 151,50.5C 152.643,49.6854 154.143,48.6854 155.5,47.5 Z"/></g>
<g><path style="opacity:1" fill="#3aafda" d="M 162.5,51.5 C 163.435,48.8872 163.602,46.2205 163,43.5C 162.184,42.1772 161.017,41.5106 159.5,41.5C 157.969,38.9964 158.803,37.6631 162,37.5C 167.977,39.7949 169.977,44.1282 168,50.5C 166.301,51.4061 164.467,51.7394 162.5,51.5 Z"/></g>
<g><path style="opacity:1" fill="#d37a29" d="M 180.5,45.5 C 181.167,45.5 181.833,45.5 182.5,45.5C 187.399,46.8983 190.399,50.065 191.5,55C 191.255,58.2545 189.588,59.5879 186.5,59C 190.636,54.6646 189.969,50.9979 184.5,48C 180.9,46.9271 177.9,47.7605 175.5,50.5C 176.167,47.8333 177.833,46.1667 180.5,45.5 Z"/></g>
<g><path style="opacity:1" fill="#131216" d="M 159.5,41.5 C 161.017,41.5106 162.184,42.1772 163,43.5C 163.602,46.2205 163.435,48.8872 162.5,51.5C 160.485,49.424 158.485,47.424 156.5,45.5C 156.5,45.1667 156.5,44.8333 156.5,44.5C 157.5,43.5 158.5,42.5 159.5,41.5 Z"/></g>
<g><path style="opacity:1" fill="#9e8c1a" d="M 207.5,29.5 C 211.792,29.8086 213.459,32.1419 212.5,36.5C 212.882,40.7534 211.216,43.7534 207.5,45.5C 203.899,44.5638 202.233,42.2305 202.5,38.5C 202.667,37.1667 202.833,35.8333 203,34.5C 204.707,32.9625 206.207,31.2959 207.5,29.5 Z"/></g>
<g><path style="opacity:1" fill="#24241b" d="M 137.5,30.5 C 137.567,31.9587 137.234,33.2921 136.5,34.5C 136.5,35.1667 136.5,35.8333 136.5,36.5C 136.343,37.8734 136.51,39.2068 137,40.5C 141.026,39.3461 142.859,41.0128 142.5,45.5C 142.167,45.5 141.833,45.5 141.5,45.5C 139.833,45.5 138.167,45.5 136.5,45.5C 136.5,45.1667 136.5,44.8333 136.5,44.5C 135.398,40.2529 135.232,35.9196 136,31.5C 136.383,30.944 136.883,30.6107 137.5,30.5 Z"/></g>
<g><path style="opacity:1" fill="#f4f2f5" d="M 156.5,31.5 C 156.5,35.8333 156.5,40.1667 156.5,44.5C 156.5,44.8333 156.5,45.1667 156.5,45.5C 155.662,45.8417 155.328,46.5084 155.5,47.5C 154.143,48.6854 152.643,49.6854 151,50.5C 149.862,50.0109 148.695,49.6775 147.5,49.5C 147.389,48.8826 147.056,48.3826 146.5,48C 149.229,43.0363 148.229,38.7029 143.5,35C 141.19,34.5034 138.857,34.3367 136.5,34.5C 137.234,33.2921 137.567,31.9587 137.5,30.5C 139.479,29.1879 141.145,27.5212 142.5,25.5C 148.982,23.4341 153.649,25.4341 156.5,31.5 Z"/></g>
<g><path style="opacity:1" fill="#3babd6" d="M 142.5,45.5 C 142.859,41.0128 141.026,39.3461 137,40.5C 136.51,39.2068 136.343,37.8734 136.5,36.5C 144.297,35.3017 147.297,38.635 145.5,46.5C 144.583,45.8728 143.583,45.5394 142.5,45.5 Z"/></g>
<g><path style="opacity:1" fill="#517687" d="M 156.5,31.5 C 157.167,31.5 157.833,31.5 158.5,31.5C 158.5,33.1667 158.5,34.8333 158.5,36.5C 165.772,35.7641 169.772,39.0974 170.5,46.5C 170.533,49.1016 169.533,51.1016 167.5,52.5C 166.609,53.1098 165.609,53.4431 164.5,53.5C 163.5,53.1667 162.833,52.5 162.5,51.5C 164.467,51.7394 166.301,51.4061 168,50.5C 169.977,44.1282 167.977,39.7949 162,37.5C 158.803,37.6631 157.969,38.9964 159.5,41.5C 158.5,42.5 157.5,43.5 156.5,44.5C 156.5,40.1667 156.5,35.8333 156.5,31.5 Z"/></g>
<g><path style="opacity:1" fill="#4a6a74" d="M 136.5,34.5 C 138.857,34.3367 141.19,34.5034 143.5,35C 148.229,38.7029 149.229,43.0363 146.5,48C 147.056,48.3826 147.389,48.8826 147.5,49.5C 145.147,48.6597 143.147,47.3264 141.5,45.5C 141.833,45.5 142.167,45.5 142.5,45.5C 143.583,45.5394 144.583,45.8728 145.5,46.5C 147.297,38.635 144.297,35.3017 136.5,36.5C 136.5,35.8333 136.5,35.1667 136.5,34.5 Z"/></g>
<g><path style="opacity:1" fill="#f4f2f4" d="M 172.5,24.5 C 173.965,25.7368 175.632,26.7368 177.5,27.5C 181.484,32.9611 182.484,38.9611 180.5,45.5C 177.833,46.1667 176.167,47.8333 175.5,50.5C 175.218,51.7777 174.551,52.7777 173.5,53.5C 171.265,53.7947 169.265,53.4614 167.5,52.5C 169.533,51.1016 170.533,49.1016 170.5,46.5C 169.772,39.0974 165.772,35.7641 158.5,36.5C 158.5,34.8333 158.5,33.1667 158.5,31.5C 160.963,29.5389 163.297,27.3722 165.5,25C 167.81,24.5034 170.143,24.3367 172.5,24.5 Z"/></g>
<g><path style="opacity:1" fill="#95854d" d="M 178.5,26.5 C 183.321,32.0254 184.654,38.3587 182.5,45.5C 181.833,45.5 181.167,45.5 180.5,45.5C 182.484,38.9611 181.484,32.9611 177.5,27.5C 177.5,26.8333 177.833,26.5 178.5,26.5 Z"/></g>
<g><path style="opacity:1" fill="#3d2a11" d="M 178.5,26.5 C 177.833,26.5 177.5,26.8333 177.5,27.5C 175.632,26.7368 173.965,25.7368 172.5,24.5C 173.93,24.4208 175.264,24.7542 176.5,25.5C 177.719,24.7366 178.719,23.7366 179.5,22.5C 179.833,22.8333 180.167,23.1667 180.5,23.5C 179.807,24.5178 179.141,25.5178 178.5,26.5 Z"/></g>
<g><path style="opacity:1" fill="#64572c" d="M 172.5,24.5 C 170.143,24.3367 167.81,24.5034 165.5,25C 163.297,27.3722 160.963,29.5389 158.5,31.5C 157.833,31.5 157.167,31.5 156.5,31.5C 153.649,25.4341 148.982,23.4341 142.5,25.5C 141.145,27.5212 139.479,29.1879 137.5,30.5C 137.685,28.8042 138.519,27.4709 140,26.5C 140.078,24.3435 140.245,22.3435 140.5,20.5C 141.722,22.9783 143.722,23.9783 146.5,23.5C 147.167,18.1667 147.833,18.1667 148.5,23.5C 149.93,23.4208 151.264,23.7542 152.5,24.5C 153.167,23.5 153.833,22.5 154.5,21.5C 155.645,22.7757 155.645,24.109 154.5,25.5C 155.667,27.1667 156.833,28.8333 158,30.5C 159.667,28.8333 161.333,27.1667 163,25.5C 163.595,24.1011 163.428,22.7678 162.5,21.5C 162.833,21.1667 163.167,20.8333 163.5,20.5C 164.386,21.325 164.719,22.325 164.5,23.5C 166.5,23.5 168.5,23.5 170.5,23.5C 170.238,22.0222 170.571,20.6888 171.5,19.5C 172.452,21.0453 172.785,22.712 172.5,24.5 Z"/></g>
<g><path style="opacity:1" fill="#c2b520" d="M 129.5,12.5 C 134.07,12.2376 136.07,14.4043 135.5,19C 136.278,23.0551 134.611,25.2217 130.5,25.5C 127.698,25.0291 126.364,23.3625 126.5,20.5C 126.726,17.4828 127.726,14.8162 129.5,12.5 Z"/></g>
<g><path style="opacity:1" fill="#f2eeec" d="M 120.5,58.5 C 123.046,62.8367 123.713,67.5034 122.5,72.5C 121.817,72.8627 121.15,73.1961 120.5,73.5C 117.833,71.8266 115.833,69.4933 114.5,66.5C 113.139,61.2309 115.139,58.5642 120.5,58.5 Z"/></g>
<g><path style="opacity:1" fill="#f0f2f6" d="M 164.5,62.5 C 164.5,64.8333 164.5,67.1667 164.5,69.5C 162.5,69.5 160.5,69.5 158.5,69.5C 158.5,67.1667 158.5,64.8333 158.5,62.5C 160.5,62.5 162.5,62.5 164.5,62.5 Z"/></g>
<g><path style="opacity:1" fill="#efeff2" d="M 224.5,66.5 C 224.621,71.6832 222.621,72.6832 218.5,69.5C 216.792,69.7028 215.459,70.5362 214.5,72C 215.823,72.8159 216.489,73.9826 216.5,75.5C 215.127,75.6567 213.793,75.49 212.5,75C 208.459,69.4281 206.959,63.2614 208,56.5C 210.647,55.5363 213.147,56.0363 215.5,58C 218.369,61.0379 221.369,63.8712 224.5,66.5 Z"/></g>
<g><path style="opacity:1" fill="#d25c3c" d="M 109.5,63.5 C 110.167,63.5 110.833,63.5 111.5,63.5C 111.833,63.5 112.167,63.5 112.5,63.5C 113.167,64.5 113.833,65.5 114.5,66.5C 115.833,69.4933 117.833,71.8266 120.5,73.5C 121.363,75.4214 122.029,77.4214 122.5,79.5C 117.698,74.5729 113.365,69.2396 109.5,63.5 Z"/></g>
<g><path style="opacity:1" fill="#61521c" d="M 136.5,44.5 C 136.5,44.8333 136.5,45.1667 136.5,45.5C 134.983,47.9358 135.316,50.1024 137.5,52C 142.194,54.4238 147.194,55.7572 152.5,56C 148.106,56.3028 143.773,56.9695 139.5,58C 142.731,58.8611 145.731,60.0278 148.5,61.5C 156.988,62.0113 165.321,61.178 173.5,59C 177.01,57.245 180.343,55.5784 183.5,54C 178.812,59.011 173.145,61.8443 166.5,62.5C 165.833,62.5 165.167,62.5 164.5,62.5C 162.5,62.5 160.5,62.5 158.5,62.5C 158.5,64.8333 158.5,67.1667 158.5,69.5C 158.5,70.1667 158.167,70.5 157.5,70.5C 156.527,68.0521 156.194,65.3854 156.5,62.5C 155.5,62.5 154.5,62.5 153.5,62.5C 153.5,65.1667 153.5,67.8333 153.5,70.5C 150.5,70.5 147.5,70.5 144.5,70.5C 144.817,67.4281 144.484,64.4281 143.5,61.5C 140.683,60.9049 138.35,59.5716 136.5,57.5C 138.078,56.7022 139.744,56.2022 141.5,56C 138.734,54.5331 136.234,52.6998 134,50.5C 133.028,47.7058 133.861,45.7058 136.5,44.5 Z"/></g>
<g><path style="opacity:1" fill="#e9e7e8" d="M 148.5,61.5 C 149.568,62.4345 150.901,62.7678 152.5,62.5C 152.5,64.8333 152.5,67.1667 152.5,69.5C 150.167,69.5 147.833,69.5 145.5,69.5C 145.5,66.8333 145.5,64.1667 145.5,61.5C 146.5,61.5 147.5,61.5 148.5,61.5 Z"/></g>
<g><path style="opacity:1" fill="#8f8550" d="M 164.5,62.5 C 165.167,62.5 165.833,62.5 166.5,62.5C 168.326,71.0177 165.326,73.6844 157.5,70.5C 158.167,70.5 158.5,70.1667 158.5,69.5C 160.5,69.5 162.5,69.5 164.5,69.5C 164.5,67.1667 164.5,64.8333 164.5,62.5 Z"/></g>
<g><path style="opacity:1" fill="#645424" d="M 224.5,66.5 C 225.139,67.0968 225.472,67.9302 225.5,69C 224.582,71.0865 223.915,73.2532 223.5,75.5C 221.521,74.1879 219.855,72.5212 218.5,70.5C 217.692,70.8076 217.025,71.3076 216.5,72C 219.476,75.4549 221.81,79.2883 223.5,83.5C 222.863,86.1071 221.696,88.4404 220,90.5C 219.023,91.7736 218.189,91.7736 217.5,90.5C 223.024,85.3052 222.691,80.6385 216.5,76.5C 216.5,76.1667 216.5,75.8333 216.5,75.5C 216.489,73.9826 215.823,72.8159 214.5,72C 215.459,70.5362 216.792,69.7028 218.5,69.5C 222.621,72.6832 224.621,71.6832 224.5,66.5 Z"/></g>
<g><path style="opacity:1" fill="#dd6c33" d="M 187.5,67.5 C 187.833,67.5 188.167,67.5 188.5,67.5C 193.409,67.1204 198.076,67.787 202.5,69.5C 204.193,72.1841 205.86,74.8508 207.5,77.5C 207.687,79.5643 208.187,81.5643 209,83.5C 211.127,85.1137 212.627,87.1137 213.5,89.5C 213.167,89.5 212.833,89.5 212.5,89.5C 211.292,86.9558 209.292,85.6225 206.5,85.5C 206.399,72.91 200.066,67.7434 187.5,70C 182.776,72.4353 181.276,76.2686 183,81.5C 184.167,82.6667 185.333,83.8333 186.5,85C 189.666,85.3221 192.333,86.4887 194.5,88.5C 192.194,88.0074 189.861,87.6741 187.5,87.5C 180.46,83.7604 178.626,78.0937 182,70.5C 183.719,69.1312 185.552,68.1312 187.5,67.5 Z"/></g>
<g><path style="opacity:1" fill="#f7d929" d="M 210.5,75.5 C 212.379,76.3414 214.379,76.6747 216.5,76.5C 222.691,80.6385 223.024,85.3052 217.5,90.5C 216.5,90.5 215.5,90.5 214.5,90.5C 214.5,89.8333 214.167,89.5 213.5,89.5C 212.627,87.1137 211.127,85.1137 209,83.5C 208.187,81.5643 207.687,79.5643 207.5,77.5C 208.5,76.8333 209.5,76.1667 210.5,75.5 Z"/></g>
<g><path style="opacity:1" fill="#dec73d" d="M 187.5,67.5 C 185.552,68.1312 183.719,69.1312 182,70.5C 178.626,78.0937 180.46,83.7604 187.5,87.5C 185.94,87.4809 184.44,87.1476 183,86.5C 181.864,87.7827 180.531,88.7827 179,89.5C 175.211,89.0553 173.877,87.0553 175,83.5C 176.652,82.783 178.152,82.4496 179.5,82.5C 177.633,81.2027 177.3,79.7027 178.5,78C 173.262,73.787 173.262,69.4536 178.5,65C 179.833,64.3333 181.167,64.3333 182.5,65C 183.653,66.883 185.319,67.7163 187.5,67.5 Z"/></g>
<g><path style="opacity:1" fill="#a0812b" d="M 119.5,57.5 C 120.209,56.596 121.209,56.2627 122.5,56.5C 122.216,58.4147 122.549,60.0813 123.5,61.5C 123.423,70.4968 123.923,79.4968 125,88.5C 128.603,89.1352 132.103,89.8018 135.5,90.5C 132.167,90.5 128.833,90.5 125.5,90.5C 124.833,90.5 124.167,90.5 123.5,90.5C 123.577,86.7852 123.244,83.1185 122.5,79.5C 122.029,77.4214 121.363,75.4214 120.5,73.5C 121.15,73.1961 121.817,72.8627 122.5,72.5C 123.713,67.5034 123.046,62.8367 120.5,58.5C 120.5,57.8333 120.167,57.5 119.5,57.5 Z"/></g>
<g><path style="opacity:1" fill="#4c3c0f" d="M 223.5,75.5 C 226.157,77.466 227.823,80.1327 228.5,83.5C 227.336,87.1605 225.67,90.4939 223.5,93.5C 221.983,93.5106 220.816,94.1772 220,95.5C 219.833,95.1667 219.667,94.8333 219.5,94.5C 221.895,92.0562 224.062,89.3895 226,86.5C 226.667,84.5 226.667,82.5 226,80.5C 224.628,79.0899 223.795,77.4233 223.5,75.5 Z"/></g>
<g><path style="opacity:1" fill="#854e20" d="M 212.5,89.5 C 212.833,89.5 213.167,89.5 213.5,89.5C 214.167,89.5 214.5,89.8333 214.5,90.5C 212.031,91.3171 209.365,91.8171 206.5,92C 205.016,92.6622 203.683,93.4955 202.5,94.5C 204.617,90.774 207.95,89.1074 212.5,89.5 Z"/></g>
<g><path style="opacity:1" fill="#edd759" d="M 223.5,75.5 C 223.795,77.4233 224.628,79.0899 226,80.5C 226.667,82.5 226.667,84.5 226,86.5C 224.062,89.3895 221.895,92.0562 219.5,94.5C 219.667,94.8333 219.833,95.1667 220,95.5C 220.816,94.1772 221.983,93.5106 223.5,93.5C 222.586,96.728 222.253,100.061 222.5,103.5C 221.5,103.167 220.833,102.5 220.5,101.5C 215.29,96.6702 211.29,97.6702 208.5,104.5C 207.61,102.174 207.443,99.8406 208,97.5C 206.165,99.4494 204.999,101.783 204.5,104.5C 203.223,101.966 203.223,99.4659 204.5,97C 203.244,96.5831 202.577,95.7498 202.5,94.5C 203.683,93.4955 205.016,92.6622 206.5,92C 209.365,91.8171 212.031,91.3171 214.5,90.5C 215.5,90.5 216.5,90.5 217.5,90.5C 218.189,91.7736 219.023,91.7736 220,90.5C 221.696,88.4404 222.863,86.1071 223.5,83.5C 221.81,79.2883 219.476,75.4549 216.5,72C 217.025,71.3076 217.692,70.8076 218.5,70.5C 219.855,72.5212 221.521,74.1879 223.5,75.5 Z"/></g>
<g><path style="opacity:1" fill="#5c450f" d="M 70.5,92.5 C 71.3382,92.8417 71.6716,93.5084 71.5,94.5C 67.6181,95.2108 65.1181,97.5442 64,101.5C 63.157,105.103 63.657,108.436 65.5,111.5C 65.1667,111.5 64.8333,111.5 64.5,111.5C 64.1667,111.5 63.8333,111.5 63.5,111.5C 60.5379,103.039 62.8712,96.7061 70.5,92.5 Z"/></g>
<g><path style="opacity:1" fill="#f1dc5f" d="M 71.5,94.5 C 71.0535,97.0101 71.7202,99.0101 73.5,100.5C 74.911,102.539 76.911,103.539 79.5,103.5C 79.7373,104.791 79.404,105.791 78.5,106.5C 74.8084,107.029 71.6417,106.029 69,103.5C 68.8333,103.833 68.6667,104.167 68.5,104.5C 71.127,107.476 74.4603,108.81 78.5,108.5C 79.8852,109.947 79.5518,110.947 77.5,111.5C 73.6942,111.98 70.3609,110.98 67.5,108.5C 67.1667,108.667 66.8333,108.833 66.5,109C 68.3893,110.764 70.3893,112.264 72.5,113.5C 69.8915,113.6 67.5582,112.933 65.5,111.5C 63.657,108.436 63.157,105.103 64,101.5C 65.1181,97.5442 67.6181,95.2108 71.5,94.5 Z"/></g>
<g><path style="opacity:1" fill="#f79c87" d="M 85.5,34.5 C 83.5,34.5 81.5,34.5 79.5,34.5C 79.5,35.8333 79.5,37.1667 79.5,38.5C 84.0323,38.8182 88.3656,38.4849 92.5,37.5C 93.4918,39.4561 94.4918,41.4561 95.5,43.5C 100.167,50.1667 104.833,56.8333 109.5,63.5C 113.365,69.2396 117.698,74.5729 122.5,79.5C 123.244,83.1185 123.577,86.7852 123.5,90.5C 123.313,95.8446 122.98,101.178 122.5,106.5C 122.5,109.167 122.5,111.833 122.5,114.5C 124.604,114.201 126.604,114.534 128.5,115.5C 123.637,120.299 123.304,125.299 127.5,130.5C 126.377,132.518 126.377,134.518 127.5,136.5C 125.314,137.221 123.147,137.887 121,138.5C 120.188,145.001 123.021,147.168 129.5,145C 130.618,143.926 131.618,142.76 132.5,141.5C 136.235,141.976 138.568,140.143 139.5,136C 137.541,134.7 136.374,132.867 136,130.5C 131.88,128.933 129.714,125.933 129.5,121.5C 130.482,120.859 131.482,120.193 132.5,119.5C 135.198,122.595 138.032,122.928 141,120.5C 141.483,119.552 141.649,118.552 141.5,117.5C 148.077,118.236 154.577,119.236 161,120.5C 160.401,123.928 159.568,127.428 158.5,131C 158.917,133.498 159.251,135.998 159.5,138.5C 159.247,140.827 159.914,142.827 161.5,144.5C 156.605,144.554 154.438,146.888 155,151.5C 157.709,154.368 160.876,155.035 164.5,153.5C 166.383,150.91 168.55,148.577 171,146.5C 171.18,141.527 169.18,137.527 165,134.5C 164.503,132.19 164.337,129.857 164.5,127.5C 166.711,127.102 169.044,126.936 171.5,127C 173.037,125.89 173.703,124.39 173.5,122.5C 180.981,124.769 187.648,123.436 193.5,118.5C 194.966,117.653 195.8,116.32 196,114.5C 197.413,100.729 197.246,95.0624 195.5,97.5C 195.167,97.5 194.833,97.5 194.5,97.5C 194.5,94.5 194.5,91.5 194.5,88.5C 192.333,86.4887 189.666,85.3221 186.5,85C 185.333,83.8333 184.167,82.6667 183,81.5C 181.276,76.2686 182.776,72.4353 187.5,70C 200.066,67.7434 206.399,72.91 206.5,85.5C 209.292,85.6225 211.292,86.9558 212.5,89.5C 207.95,89.1074 204.617,90.774 202.5,94.5C 201.359,97.6399 201.192,100.973 202,104.5C 202.689,105.357 203.522,106.023 204.5,106.5C 206.135,105.67 207.802,105.503 209.5,106C 210.87,104.559 211.87,102.892 212.5,101C 214.885,100.444 217.218,100.61 219.5,101.5C 221.07,106.393 221.57,111.393 221,116.5C 218.408,120.514 215.242,124.014 211.5,127C 201.602,131.28 191.268,133.446 180.5,133.5C 181.027,139.27 182.027,144.936 183.5,150.5C 183.672,157.655 181.005,163.489 175.5,168C 170.198,171.8 164.865,175.3 159.5,178.5C 156.073,180.567 152.406,181.9 148.5,182.5C 143.02,182.382 137.686,183.215 132.5,185C 122.167,185.667 111.833,185.667 101.5,185C 91.5856,183.746 81.9189,181.58 72.5,178.5C 72.4226,177.25 71.756,176.417 70.5,176C 65.8333,175.667 61.1667,175.333 56.5,175C 51.6125,172.123 51.4459,169.29 56,166.5C 56.6667,165.833 56.6667,165.167 56,164.5C 53.3582,162.432 50.5248,160.765 47.5,159.5C 45.6203,159.771 44.287,159.104 43.5,157.5C 39.8627,154.694 36.6961,151.361 34,147.5C 33.3333,145.5 33.3333,143.5 34,141.5C 37.2665,136.397 41.0998,131.73 45.5,127.5C 51.6415,122.463 57.6415,117.463 63.5,112.5C 63.5,112.167 63.5,111.833 63.5,111.5C 63.8333,111.5 64.1667,111.5 64.5,111.5C 66.0983,113.569 68.2649,114.569 71,114.5C 74.6731,114.372 78.0064,113.372 81,111.5C 80.3333,108.833 80.3333,106.167 81,103.5C 78.6922,102.009 76.1922,101.009 73.5,100.5C 72.5417,92.4197 71.0417,84.4197 69,76.5C 64,60.5 59,44.5 54,28.5C 52.3417,16.3852 57.175,13.2185 68.5,19C 74.9612,23.2945 80.6279,28.4612 85.5,34.5 Z"/></g>
<g><path style="opacity:1" fill="#b4d7e0" d="M 194.5,97.5 C 194.833,97.5 195.167,97.5 195.5,97.5C 195.5,99.8333 195.5,102.167 195.5,104.5C 192.63,105.634 189.63,106.3 186.5,106.5C 186.5,104.5 186.5,102.5 186.5,100.5C 189.354,99.7949 192.021,98.7949 194.5,97.5 Z"/></g>
<g><path style="opacity:1" fill="#f0f0ef" d="M 170.5,96.5 C 175.975,96.6771 180.975,98.0104 185.5,100.5C 185.5,102.5 185.5,104.5 185.5,106.5C 175.206,104.908 164.873,103.575 154.5,102.5C 154.5,100.833 154.5,99.1667 154.5,97.5C 155.496,97.5858 156.329,97.2524 157,96.5C 158.295,98.1217 159.795,99.455 161.5,100.5C 164.725,99.5415 167.725,98.2082 170.5,96.5 Z"/></g>
<g><path style="opacity:1" fill="#78421e" d="M 123.5,90.5 C 124.167,90.5 124.833,90.5 125.5,90.5C 125.5,90.8333 125.5,91.1667 125.5,91.5C 124.532,93.6074 124.198,95.9407 124.5,98.5C 132.559,99.1277 140.559,100.128 148.5,101.5C 149.183,101.137 149.85,100.804 150.5,100.5C 150.245,102.967 149.245,104.967 147.5,106.5C 146.552,105.022 145.219,104.022 143.5,103.5C 145.199,103.66 146.866,103.494 148.5,103C 140.578,101.343 132.578,100.176 124.5,99.5C 124.5,103.833 124.5,108.167 124.5,112.5C 123.833,110.5 123.167,108.5 122.5,106.5C 122.98,101.178 123.313,95.8446 123.5,90.5 Z"/></g>
<g><path style="opacity:1" fill="#201005" d="M 143.5,103.5 C 145.219,104.022 146.552,105.022 147.5,106.5C 146.5,106.5 145.5,106.5 144.5,106.5C 142.833,106.5 141.167,106.5 139.5,106.5C 139.5,105.5 139.5,104.5 139.5,103.5C 140.833,103.5 142.167,103.5 143.5,103.5 Z"/></g>
<g><path style="opacity:1" fill="#efedee" d="M 125.5,91.5 C 129.182,91.3347 132.848,91.5014 136.5,92C 137.789,93.8022 139.456,94.9688 141.5,95.5C 141.811,96.4778 142.478,97.1445 143.5,97.5C 144.814,96.6872 145.981,95.6872 147,94.5C 147.383,95.056 147.883,95.3893 148.5,95.5C 149.942,96.8195 150.608,98.4862 150.5,100.5C 149.85,100.804 149.183,101.137 148.5,101.5C 140.559,100.128 132.559,99.1277 124.5,98.5C 124.198,95.9407 124.532,93.6074 125.5,91.5 Z"/></g>
<g><path style="opacity:1" fill="#eff0e7" d="M 158.5,94.5 C 162.042,94.1872 165.375,94.5206 168.5,95.5C 166.312,97.7555 163.646,98.5888 160.5,98C 159.177,97.1841 158.511,96.0174 158.5,94.5 Z"/></g>
<g><path style="opacity:1" fill="#50474a" d="M 157.5,94.5 C 157.833,94.5 158.167,94.5 158.5,94.5C 158.511,96.0174 159.177,97.1841 160.5,98C 163.646,98.5888 166.312,97.7555 168.5,95.5C 169.492,95.3284 170.158,95.6618 170.5,96.5C 167.725,98.2082 164.725,99.5415 161.5,100.5C 159.795,99.455 158.295,98.1217 157,96.5C 156.329,97.2524 155.496,97.5858 154.5,97.5C 154.833,96.8333 155.167,96.1667 155.5,95.5C 156.167,95.1667 156.833,94.8333 157.5,94.5 Z"/></g>
<g><path style="opacity:1" fill="#9f9241" d="M 185.5,97.5 C 188.281,97.9065 191.281,97.9065 194.5,97.5C 192.021,98.7949 189.354,99.7949 186.5,100.5C 186.167,100.5 185.833,100.5 185.5,100.5C 180.975,98.0104 175.975,96.6771 170.5,96.5C 170.158,95.6618 169.492,95.3284 168.5,95.5C 165.375,94.5206 162.042,94.1872 158.5,94.5C 158.167,94.5 157.833,94.5 157.5,94.5C 157.5,94.1667 157.5,93.8333 157.5,93.5C 162.756,91.8108 167.756,92.3108 172.5,95C 176.981,95.266 181.314,96.0993 185.5,97.5 Z"/></g>
<g><path style="opacity:1" fill="#dfce62" d="M 187.5,87.5 C 189.861,87.6741 192.194,88.0074 194.5,88.5C 194.5,91.5 194.5,94.5 194.5,97.5C 191.281,97.9065 188.281,97.9065 185.5,97.5C 187.402,94.6627 188.069,91.3293 187.5,87.5 Z"/></g>
<g><path style="opacity:1" fill="#c3761e" d="M 147.5,91.5 C 150.552,93.1783 153.885,93.845 157.5,93.5C 157.5,93.8333 157.5,94.1667 157.5,94.5C 156.833,94.8333 156.167,95.1667 155.5,95.5C 152.921,95.6061 150.588,94.9395 148.5,93.5C 148.167,92.8333 147.833,92.1667 147.5,91.5 Z"/></g>
<g><path style="opacity:1" fill="#988d6c" d="M 125.5,91.5 C 125.5,91.1667 125.5,90.8333 125.5,90.5C 128.833,90.5 132.167,90.5 135.5,90.5C 139.434,91.3597 143.434,91.693 147.5,91.5C 147.833,92.1667 148.167,92.8333 148.5,93.5C 148.5,94.1667 148.5,94.8333 148.5,95.5C 147.883,95.3893 147.383,95.056 147,94.5C 145.981,95.6872 144.814,96.6872 143.5,97.5C 142.478,97.1445 141.811,96.4778 141.5,95.5C 139.456,94.9688 137.789,93.8022 136.5,92C 132.848,91.5014 129.182,91.3347 125.5,91.5 Z"/></g>
<g><path style="opacity:1" fill="#f1efea" d="M 141.5,95.5 C 141.047,94.5416 140.381,93.7083 139.5,93C 141.833,92.3333 144.167,92.3333 146.5,93C 145.347,94.883 143.681,95.7163 141.5,95.5 Z"/></g>
<g><path style="opacity:1" fill="#c0b420" d="M 132.5,73.5 C 138.156,73.8674 139.989,76.8674 138,82.5C 133.47,87.0339 130.303,86.3673 128.5,80.5C 128.577,77.3346 129.91,75.0013 132.5,73.5 Z"/></g>
<g><path style="opacity:1" fill="#8d6761" d="M 75.5,71.5 C 77.1987,76.0319 80.1987,79.5319 84.5,82C 87.2272,82.8184 89.8938,82.6517 92.5,81.5C 92.8627,80.8165 93.1961,80.1499 93.5,79.5C 93.8333,79.5 94.1667,79.5 94.5,79.5C 93.207,84.0784 90.207,85.5784 85.5,84C 79.7324,81.737 76.3991,77.5704 75.5,71.5 Z"/></g>
<g><path style="opacity:1" fill="#8c615a" d="M 105.5,61.5 C 109.671,65.8382 110.504,70.8382 108,76.5C 104.183,79.8699 100.183,80.2033 96,77.5C 95.7216,78.4158 95.2216,79.0825 94.5,79.5C 94.2322,77.901 94.5655,76.5676 95.5,75.5C 99.2245,78.1475 103.058,78.1475 107,75.5C 109.086,71.3335 108.753,67.3335 106,63.5C 105.617,64.056 105.117,64.3893 104.5,64.5C 104.557,63.391 104.89,62.391 105.5,61.5 Z"/></g>
<g><path style="opacity:1" fill="#713022" d="M 112.5,74.5 C 113.376,74.3691 114.043,74.7025 114.5,75.5C 113.599,83.4725 109.599,89.3059 102.5,93C 97.5,93.6667 92.5,93.6667 87.5,93C 83.1899,91.5116 79.1899,89.5116 75.5,87C 76.354,85.9783 77.354,85.1449 78.5,84.5C 79.6943,87.86 82.0276,90.0266 85.5,91C 97.8572,95.8832 106.691,92.3832 112,80.5C 112.495,78.5273 112.662,76.5273 112.5,74.5 Z"/></g>
<g><path style="opacity:1" fill="#edb75d" d="M 147.5,75.5 C 153.555,75.3379 159.555,75.8379 165.5,77C 164.57,77.9907 163.404,78.4907 162,78.5C 156.737,78.3011 151.904,77.3011 147.5,75.5 Z"/></g>
<g><path style="opacity:1" fill="#f2f1f4" d="M 100.5,55.5 C 98.9192,59.0943 99.5858,62.261 102.5,65C 103.437,65.6917 104.103,65.525 104.5,64.5C 105.117,64.3893 105.617,64.056 106,63.5C 108.753,67.3335 109.086,71.3335 107,75.5C 103.058,78.1475 99.2245,78.1475 95.5,75.5C 95.4725,72.0836 94.4725,69.0836 92.5,66.5C 92.2671,64.9382 91.6005,63.6049 90.5,62.5C 87.087,57.5485 88.087,53.8818 93.5,51.5C 96.0237,52.5923 98.357,53.9257 100.5,55.5 Z"/></g>
<g><path style="opacity:1" fill="#a4a2a4" d="M 92.5,66.5 C 94.4725,69.0836 95.4725,72.0836 95.5,75.5C 94.5655,76.5676 94.2322,77.901 94.5,79.5C 94.1667,79.5 93.8333,79.5 93.5,79.5C 94.0545,75.9878 93.3878,72.9878 91.5,70.5C 91.8333,69.1667 92.1667,67.8333 92.5,66.5 Z"/></g>
<g><path style="opacity:1" fill="#f4f3f6" d="M 86.5,62.5 C 85.0558,66.9265 86.7224,69.5932 91.5,70.5C 93.3878,72.9878 94.0545,75.9878 93.5,79.5C 93.1961,80.1499 92.8627,80.8165 92.5,81.5C 89.8938,82.6517 87.2272,82.8184 84.5,82C 80.1987,79.5319 77.1987,76.0319 75.5,71.5C 73.3414,65.9362 74.3414,61.1028 78.5,57C 82.6868,56.0903 86.0202,57.4236 88.5,61C 87.5842,61.2784 86.9175,61.7784 86.5,62.5 Z"/></g>
<g><path style="opacity:1" fill="#161617" d="M 86.5,62.5 C 87.8333,62.5 89.1667,62.5 90.5,62.5C 91.6005,63.6049 92.2671,64.9382 92.5,66.5C 92.1667,67.8333 91.8333,69.1667 91.5,70.5C 86.7224,69.5932 85.0558,66.9265 86.5,62.5 Z"/></g>
<g><path style="opacity:1" fill="#141110" d="M 100.5,55.5 C 100.833,55.5 101.167,55.5 101.5,55.5C 103.218,57.2228 104.551,59.2228 105.5,61.5C 104.89,62.391 104.557,63.391 104.5,64.5C 104.103,65.525 103.437,65.6917 102.5,65C 99.5858,62.261 98.9192,59.0943 100.5,55.5 Z"/></g>
<g><path style="opacity:1" fill="#7b5750" d="M 101.5,55.5 C 101.167,55.5 100.833,55.5 100.5,55.5C 98.357,53.9257 96.0237,52.5923 93.5,51.5C 88.087,53.8818 87.087,57.5485 90.5,62.5C 89.1667,62.5 87.8333,62.5 86.5,62.5C 86.9175,61.7784 87.5842,61.2784 88.5,61C 86.0202,57.4236 82.6868,56.0903 78.5,57C 74.3414,61.1028 73.3414,65.9362 75.5,71.5C 74.7784,71.0825 74.2784,70.4158 74,69.5C 71.5786,59.101 75.412,54.7677 85.5,56.5C 90.4602,48.891 95.7936,48.5577 101.5,55.5 Z"/></g>
<g><path style="opacity:1" fill="#1c0e0a" d="M 68.5,37.5 C 69.5,37.5 70.5,37.5 71.5,37.5C 71.6495,38.552 71.4828,39.552 71,40.5C 68.6215,42.709 66.4548,45.0424 64.5,47.5C 63.5,47.1667 62.8333,46.5 62.5,45.5C 64.1397,42.5319 66.1397,39.8652 68.5,37.5 Z"/></g>
<g><path style="opacity:1" fill="#da331f" d="M 148.5,93.5 C 150.588,94.9395 152.921,95.6061 155.5,95.5C 155.167,96.1667 154.833,96.8333 154.5,97.5C 154.5,99.1667 154.5,100.833 154.5,102.5C 154.5,103.167 154.5,103.833 154.5,104.5C 156.916,110.893 154.916,113.226 148.5,111.5C 147.168,109.862 145.834,108.196 144.5,106.5C 145.5,106.5 146.5,106.5 147.5,106.5C 149.245,104.967 150.245,102.967 150.5,100.5C 150.608,98.4862 149.942,96.8195 148.5,95.5C 148.5,94.8333 148.5,94.1667 148.5,93.5 Z"/></g>
<g><path style="opacity:1" fill="#6d4b23" d="M 202.5,94.5 C 202.577,95.7498 203.244,96.5831 204.5,97C 203.223,99.4659 203.223,101.966 204.5,104.5C 204.999,101.783 206.165,99.4494 208,97.5C 207.443,99.8406 207.61,102.174 208.5,104.5C 211.29,97.6702 215.29,96.6702 220.5,101.5C 220.167,101.5 219.833,101.5 219.5,101.5C 217.218,100.61 214.885,100.444 212.5,101C 211.87,102.892 210.87,104.559 209.5,106C 207.802,105.503 206.135,105.67 204.5,106.5C 203.522,106.023 202.689,105.357 202,104.5C 201.192,100.973 201.359,97.6399 202.5,94.5 Z"/></g>
<g><path style="opacity:1" fill="#784e2f" d="M 185.5,100.5 C 185.833,100.5 186.167,100.5 186.5,100.5C 186.5,102.5 186.5,104.5 186.5,106.5C 189.63,106.3 192.63,105.634 195.5,104.5C 195.5,105.5 195.5,106.5 195.5,107.5C 193.883,108.038 192.216,108.371 190.5,108.5C 188.784,108.371 187.117,108.038 185.5,107.5C 183.143,107.337 180.81,107.503 178.5,108C 179.056,108.383 179.389,108.883 179.5,109.5C 177.453,109.489 175.453,109.156 173.5,108.5C 171.197,108.876 170.863,109.876 172.5,111.5C 171.508,111.672 170.842,111.338 170.5,110.5C 170.5,109.5 170.5,108.5 170.5,107.5C 172.199,107.66 173.866,107.494 175.5,107C 168.995,105.239 162.662,104.405 156.5,104.5C 157.602,105.176 158.602,105.842 159.5,106.5C 158.209,106.263 157.209,106.596 156.5,107.5C 155.833,106.5 155.167,105.5 154.5,104.5C 154.5,103.833 154.5,103.167 154.5,102.5C 164.873,103.575 175.206,104.908 185.5,106.5C 185.5,104.5 185.5,102.5 185.5,100.5 Z"/></g>
<g><path style="opacity:1" fill="#645a12" d="M 78.5,106.5 C 78.5,107.167 78.5,107.833 78.5,108.5C 74.4603,108.81 71.127,107.476 68.5,104.5C 68.6667,104.167 68.8333,103.833 69,103.5C 71.6417,106.029 74.8084,107.029 78.5,106.5 Z"/></g>
<g><path style="opacity:1" fill="#1b0302" d="M 159.5,106.5 C 162.321,106.539 164.988,107.205 167.5,108.5C 164.26,108.976 160.927,108.976 157.5,108.5C 156.833,108.5 156.5,108.167 156.5,107.5C 157.209,106.596 158.209,106.263 159.5,106.5 Z"/></g>
<g><path style="opacity:1" fill="#cc873c" d="M 170.5,110.5 C 165.77,110.283 161.103,110.617 156.5,111.5C 157.11,110.609 157.443,109.609 157.5,108.5C 160.927,108.976 164.26,108.976 167.5,108.5C 164.988,107.205 162.321,106.539 159.5,106.5C 158.602,105.842 157.602,105.176 156.5,104.5C 162.662,104.405 168.995,105.239 175.5,107C 173.866,107.494 172.199,107.66 170.5,107.5C 170.5,108.5 170.5,109.5 170.5,110.5 Z"/></g>
<g><path style="opacity:1" fill="#5b521f" d="M 77.5,111.5 C 75.9724,112.309 74.3057,112.976 72.5,113.5C 70.3893,112.264 68.3893,110.764 66.5,109C 66.8333,108.833 67.1667,108.667 67.5,108.5C 70.3609,110.98 73.6942,111.98 77.5,111.5 Z"/></g>
<g><path style="opacity:1" fill="#5a2f1b" d="M 73.5,100.5 C 76.1922,101.009 78.6922,102.009 81,103.5C 80.3333,106.167 80.3333,108.833 81,111.5C 78.0064,113.372 74.6731,114.372 71,114.5C 68.2649,114.569 66.0983,113.569 64.5,111.5C 64.8333,111.5 65.1667,111.5 65.5,111.5C 67.5582,112.933 69.8915,113.6 72.5,113.5C 74.3057,112.976 75.9724,112.309 77.5,111.5C 79.5518,110.947 79.8852,109.947 78.5,108.5C 78.5,107.833 78.5,107.167 78.5,106.5C 79.404,105.791 79.7373,104.791 79.5,103.5C 76.911,103.539 74.911,102.539 73.5,100.5 Z"/></g>
<g><path style="opacity:1" fill="#562c18" d="M 122.5,106.5 C 123.167,108.5 123.833,110.5 124.5,112.5C 125.5,112.5 126.5,112.5 127.5,112.5C 127.34,110.801 127.506,109.134 128,107.5C 129.049,106.483 130.216,106.316 131.5,107C 128.914,109.494 128.914,111.994 131.5,114.5C 128.927,116.91 126.927,119.743 125.5,123C 125.808,124.459 126.475,125.626 127.5,126.5C 127.433,127.959 127.766,129.292 128.5,130.5C 128.167,130.5 127.833,130.5 127.5,130.5C 123.304,125.299 123.637,120.299 128.5,115.5C 126.604,114.534 124.604,114.201 122.5,114.5C 122.5,111.833 122.5,109.167 122.5,106.5 Z"/></g>
<g><path style="opacity:1" fill="#a82e15" d="M 154.5,104.5 C 155.167,105.5 155.833,106.5 156.5,107.5C 156.5,108.167 156.833,108.5 157.5,108.5C 157.443,109.609 157.11,110.609 156.5,111.5C 153.791,118.14 151.124,118.14 148.5,111.5C 154.916,113.226 156.916,110.893 154.5,104.5 Z"/></g>
<g><path style="opacity:1" fill="#dc882c" d="M 143.5,103.5 C 142.167,103.5 140.833,103.5 139.5,103.5C 139.5,104.5 139.5,105.5 139.5,106.5C 141.167,106.5 142.833,106.5 144.5,106.5C 145.834,108.196 147.168,109.862 148.5,111.5C 151.124,118.14 153.791,118.14 156.5,111.5C 161.103,110.617 165.77,110.283 170.5,110.5C 170.842,111.338 171.508,111.672 172.5,111.5C 176.135,112.114 179.802,112.448 183.5,112.5C 183.5,111.5 183.5,110.5 183.5,109.5C 182.167,109.5 180.833,109.5 179.5,109.5C 179.389,108.883 179.056,108.383 178.5,108C 180.81,107.503 183.143,107.337 185.5,107.5C 184.705,111.785 184.372,116.119 184.5,120.5C 181.3,121.788 177.967,121.788 174.5,120.5C 173.026,121.436 172.026,122.77 171.5,124.5C 170.311,125.429 168.978,125.762 167.5,125.5C 167.5,124.5 167.5,123.5 167.5,122.5C 166.938,118.932 165.605,118.598 163.5,121.5C 160.421,118.835 160.088,116.002 162.5,113C 161.551,112.383 160.718,112.549 160,113.5C 159.51,114.793 159.343,116.127 159.5,117.5C 153.312,117.042 147.312,117.042 141.5,117.5C 140.374,118.714 139.041,119.714 137.5,120.5C 133.896,119.603 133.563,117.937 136.5,115.5C 136.145,114.478 135.478,113.811 134.5,113.5C 133.391,113.557 132.391,113.89 131.5,114.5C 128.914,111.994 128.914,109.494 131.5,107C 130.216,106.316 129.049,106.483 128,107.5C 127.506,109.134 127.34,110.801 127.5,112.5C 126.5,112.5 125.5,112.5 124.5,112.5C 124.5,108.167 124.5,103.833 124.5,99.5C 132.578,100.176 140.578,101.343 148.5,103C 146.866,103.494 145.199,103.66 143.5,103.5 Z"/></g>
<g><path style="opacity:1" fill="#1f0f07" d="M 179.5,109.5 C 180.833,109.5 182.167,109.5 183.5,109.5C 183.5,110.5 183.5,111.5 183.5,112.5C 179.802,112.448 176.135,112.114 172.5,111.5C 170.863,109.876 171.197,108.876 173.5,108.5C 175.453,109.156 177.453,109.489 179.5,109.5 Z"/></g>
<g><path style="opacity:1" fill="#210d05" d="M 135.5,102.5 C 136.404,103.209 136.737,104.209 136.5,105.5C 133.098,105.658 129.764,105.324 126.5,104.5C 128.988,102.612 131.988,101.945 135.5,102.5 Z"/></g>
<g><path style="opacity:1" fill="#724a25" d="M 135.5,102.5 C 131.988,101.945 128.988,102.612 126.5,104.5C 125.596,103.791 125.263,102.791 125.5,101.5C 129.042,101.187 132.375,101.521 135.5,102.5 Z"/></g>
<g><path style="opacity:1" fill="#ed5f42" d="M 115.5,115.5 C 119.252,115.501 120.252,117.167 118.5,120.5C 116.244,119.579 115.244,117.912 115.5,115.5 Z"/></g>
<g><path style="opacity:1" fill="#a84f20" d="M 193.5,118.5 C 193.44,117.957 193.107,117.624 192.5,117.5C 190.255,119.623 187.588,120.623 184.5,120.5C 184.372,116.119 184.705,111.785 185.5,107.5C 187.117,108.038 188.784,108.371 190.5,108.5C 189.374,109.858 189.374,111.192 190.5,112.5C 192.071,111.691 193.738,111.357 195.5,111.5C 195.5,110.167 195.5,108.833 195.5,107.5C 195.5,106.5 195.5,105.5 195.5,104.5C 195.5,102.167 195.5,99.8333 195.5,97.5C 197.246,95.0624 197.413,100.729 196,114.5C 195.8,116.32 194.966,117.653 193.5,118.5 Z"/></g>
<g><path style="opacity:1" fill="#220a05" d="M 195.5,107.5 C 195.5,108.833 195.5,110.167 195.5,111.5C 193.738,111.357 192.071,111.691 190.5,112.5C 189.374,111.192 189.374,109.858 190.5,108.5C 192.216,108.371 193.883,108.038 195.5,107.5 Z"/></g>
<g><path style="opacity:1" fill="#643322" d="M 163.5,121.5 C 162.872,124.09 161.705,126.423 160,128.5C 159.235,130.066 159.402,131.399 160.5,132.5C 160.629,134.216 160.962,135.883 161.5,137.5C 160.833,137.833 160.167,138.167 159.5,138.5C 159.251,135.998 158.917,133.498 158.5,131C 159.568,127.428 160.401,123.928 161,120.5C 154.577,119.236 148.077,118.236 141.5,117.5C 147.312,117.042 153.312,117.042 159.5,117.5C 159.343,116.127 159.51,114.793 160,113.5C 160.718,112.549 161.551,112.383 162.5,113C 160.088,116.002 160.421,118.835 163.5,121.5 Z"/></g>
<g><path style="opacity:1" fill="#63351b" d="M 134.5,113.5 C 135.478,113.811 136.145,114.478 136.5,115.5C 133.563,117.937 133.896,119.603 137.5,120.5C 139.041,119.714 140.374,118.714 141.5,117.5C 141.649,118.552 141.483,119.552 141,120.5C 138.032,122.928 135.198,122.595 132.5,119.5C 131.482,120.193 130.482,120.859 129.5,121.5C 131.221,118.798 132.888,116.131 134.5,113.5 Z"/></g>
<g><path style="opacity:1" fill="#e6d768" d="M 134.5,113.5 C 132.888,116.131 131.221,118.798 129.5,121.5C 128.549,122.919 128.216,124.585 128.5,126.5C 128.167,126.5 127.833,126.5 127.5,126.5C 126.475,125.626 125.808,124.459 125.5,123C 126.927,119.743 128.927,116.91 131.5,114.5C 132.391,113.89 133.391,113.557 134.5,113.5 Z"/></g>
<g><path style="opacity:1" fill="#4e2218" d="M 193.5,118.5 C 187.648,123.436 180.981,124.769 173.5,122.5C 173.703,124.39 173.037,125.89 171.5,127C 169.044,126.936 166.711,127.102 164.5,127.5C 164.75,125.326 165.75,123.659 167.5,122.5C 167.5,123.5 167.5,124.5 167.5,125.5C 168.978,125.762 170.311,125.429 171.5,124.5C 172.026,122.77 173.026,121.436 174.5,120.5C 177.967,121.788 181.3,121.788 184.5,120.5C 187.588,120.623 190.255,119.623 192.5,117.5C 193.107,117.624 193.44,117.957 193.5,118.5 Z"/></g>
<g><path style="opacity:1" fill="#e16224" d="M 63.5,112.5 C 57.6415,117.463 51.6415,122.463 45.5,127.5C 41.0998,131.73 37.2665,136.397 34,141.5C 33.3333,143.5 33.3333,145.5 34,147.5C 36.6961,151.361 39.8627,154.694 43.5,157.5C 35.2011,154.582 31.5345,148.916 32.5,140.5C 34.9104,135.921 37.9104,131.754 41.5,128C 48.3658,122.076 55.6992,116.909 63.5,112.5 Z"/></g>
<g><path style="opacity:1" fill="#de6725" d="M 219.5,101.5 C 219.833,101.5 220.167,101.5 220.5,101.5C 220.833,102.5 221.5,103.167 222.5,103.5C 223.463,107.796 223.629,112.129 223,116.5C 220.925,120.579 218.092,124.079 214.5,127C 204.209,132.427 193.209,135.26 181.5,135.5C 182.549,138.47 183.716,141.47 185,144.5C 185.32,148.214 185.82,151.881 186.5,155.5C 185.833,156.833 185.167,158.167 184.5,159.5C 180.358,165.807 175.025,170.974 168.5,175C 165.438,176.205 162.438,177.372 159.5,178.5C 164.865,175.3 170.198,171.8 175.5,168C 181.005,163.489 183.672,157.655 183.5,150.5C 182.027,144.936 181.027,139.27 180.5,133.5C 191.268,133.446 201.602,131.28 211.5,127C 215.242,124.014 218.408,120.514 221,116.5C 221.57,111.393 221.07,106.393 219.5,101.5 Z"/></g>
<g><path style="opacity:1" fill="#e1cf5a" d="M 167.5,122.5 C 165.75,123.659 164.75,125.326 164.5,127.5C 163.549,128.919 163.216,130.585 163.5,132.5C 162.5,132.5 161.5,132.5 160.5,132.5C 159.402,131.399 159.235,130.066 160,128.5C 161.705,126.423 162.872,124.09 163.5,121.5C 165.605,118.598 166.938,118.932 167.5,122.5 Z"/></g>
<g><path style="opacity:1" fill="#ccb6bf" d="M 127.5,126.5 C 127.833,126.5 128.167,126.5 128.5,126.5C 129.596,128.103 130.93,129.603 132.5,131C 130.876,133.019 129.543,132.852 128.5,130.5C 127.766,129.292 127.433,127.959 127.5,126.5 Z"/></g>
<g><path style="opacity:1" fill="#c4c0c4" d="M 160.5,132.5 C 161.5,132.5 162.5,132.5 163.5,132.5C 163.993,134.806 164.326,137.139 164.5,139.5C 162.821,139.715 161.821,139.048 161.5,137.5C 160.962,135.883 160.629,134.216 160.5,132.5 Z"/></g>
<g><path style="opacity:1" fill="#130a08" d="M 129.5,121.5 C 129.714,125.933 131.88,128.933 136,130.5C 136.374,132.867 137.541,134.7 139.5,136C 138.568,140.143 136.235,141.976 132.5,141.5C 131.618,142.76 130.618,143.926 129.5,145C 123.021,147.168 120.188,145.001 121,138.5C 123.147,137.887 125.314,137.221 127.5,136.5C 126.377,134.518 126.377,132.518 127.5,130.5C 127.833,130.5 128.167,130.5 128.5,130.5C 129.543,132.852 130.876,133.019 132.5,131C 130.93,129.603 129.596,128.103 128.5,126.5C 128.216,124.585 128.549,122.919 129.5,121.5 Z"/></g>
<g><path style="opacity:1" fill="#180f0d" d="M 164.5,127.5 C 164.337,129.857 164.503,132.19 165,134.5C 169.18,137.527 171.18,141.527 171,146.5C 168.55,148.577 166.383,150.91 164.5,153.5C 160.876,155.035 157.709,154.368 155,151.5C 154.438,146.888 156.605,144.554 161.5,144.5C 159.914,142.827 159.247,140.827 159.5,138.5C 160.167,138.167 160.833,137.833 161.5,137.5C 161.821,139.048 162.821,139.715 164.5,139.5C 164.326,137.139 163.993,134.806 163.5,132.5C 163.216,130.585 163.549,128.919 164.5,127.5 Z"/></g>
<g><path style="opacity:1" fill="#ea6447" d="M 68.5,149.5 C 69.8734,149.343 71.2068,149.51 72.5,150C 72.1916,154.527 74.1916,158.027 78.5,160.5C 77.7382,164.111 77.2382,167.778 77,171.5C 74.2725,176.786 73.6058,176.786 75,171.5C 75.6667,167.833 75.6667,164.167 75,160.5C 71.8023,157.437 69.6357,153.771 68.5,149.5 Z"/></g>
<g><path style="opacity:1" fill="#712c20" d="M 148.5,166.5 C 149.732,169.649 148.399,171.315 144.5,171.5C 143.263,171.444 142.263,170.944 141.5,170C 143.5,169.667 145.5,169.333 147.5,169C 148.252,168.329 148.586,167.496 148.5,166.5 Z"/></g>
<g><path style="opacity:1" fill="#e26a29" d="M 47.5,159.5 C 50.5248,160.765 53.3582,162.432 56,164.5C 56.6667,165.167 56.6667,165.833 56,166.5C 51.4459,169.29 51.6125,172.123 56.5,175C 61.1667,175.333 65.8333,175.667 70.5,176C 71.756,176.417 72.4226,177.25 72.5,178.5C 71.1667,178.167 69.8333,177.833 68.5,177.5C 67.8333,177.5 67.1667,177.5 66.5,177.5C 61.8791,178.007 57.5458,177.174 53.5,175C 49.5385,171.744 49.5385,168.577 53.5,165.5C 51.1244,163.791 49.1244,161.791 47.5,159.5 Z"/></g>
<g><path style="opacity:1" fill="#d2b54e" d="M 184.5,159.5 C 181.603,166.396 176.936,171.729 170.5,175.5C 168.77,176.026 167.436,177.026 166.5,178.5C 164.847,178.66 163.514,179.326 162.5,180.5C 157.986,181.421 153.653,182.921 149.5,185C 147.527,185.495 145.527,185.662 143.5,185.5C 144.802,183.972 146.469,182.972 148.5,182.5C 152.406,181.9 156.073,180.567 159.5,178.5C 162.438,177.372 165.438,176.205 168.5,175C 175.025,170.974 180.358,165.807 184.5,159.5 Z"/></g>
<g><path style="opacity:1" fill="#4c3b59" d="M 170.5,175.5 C 171.404,176.209 171.737,177.209 171.5,178.5C 169.833,178.5 168.167,178.5 166.5,178.5C 167.436,177.026 168.77,176.026 170.5,175.5 Z"/></g>
<g><path style="opacity:1" fill="#e07c37" d="M 72.5,178.5 C 81.9189,181.58 91.5856,183.746 101.5,185C 111.833,185.667 122.167,185.667 132.5,185C 137.686,183.215 143.02,182.382 148.5,182.5C 146.469,182.972 144.802,183.972 143.5,185.5C 125.141,188.281 106.808,188.114 88.5,185C 82.7856,183.491 77.4522,181.325 72.5,178.5 Z"/></g>
<g><path style="opacity:1" fill="#8452b3" d="M 166.5,178.5 C 168.167,178.5 169.833,178.5 171.5,178.5C 171.833,178.5 172.167,178.5 172.5,178.5C 172.5,180.5 172.5,182.5 172.5,184.5C 170.5,184.5 168.5,184.5 166.5,184.5C 166.119,183.069 165.119,182.236 163.5,182C 165.063,181.241 166.063,180.074 166.5,178.5 Z"/></g>
<g><path style="opacity:1" fill="#454314" d="M 186.5,155.5 C 187.626,162.086 187.792,168.753 187,175.5C 185.292,182.781 183.126,189.781 180.5,196.5C 180.5,195.833 180.5,195.167 180.5,194.5C 180.567,193.041 180.234,191.708 179.5,190.5C 180.497,190.53 181.164,190.03 181.5,189C 184.849,180.444 186.015,171.61 185,162.5C 182.047,167.786 178.047,172.12 173,175.5C 172.517,176.448 172.351,177.448 172.5,178.5C 172.167,178.5 171.833,178.5 171.5,178.5C 171.737,177.209 171.404,176.209 170.5,175.5C 176.936,171.729 181.603,166.396 184.5,159.5C 185.167,158.167 185.833,156.833 186.5,155.5 Z"/></g>
<g><path style="opacity:1" fill="#7b657b" d="M 172.5,178.5 C 173.468,180.607 173.802,182.941 173.5,185.5C 169.351,184.92 165.684,185.586 162.5,187.5C 161.596,186.791 161.263,185.791 161.5,184.5C 163.167,184.5 164.833,184.5 166.5,184.5C 168.5,184.5 170.5,184.5 172.5,184.5C 172.5,182.5 172.5,180.5 172.5,178.5 Z"/></g>
<g><path style="opacity:1" fill="#413c0b" d="M 66.5,177.5 C 67.1667,177.5 67.8333,177.5 68.5,177.5C 68.8333,178.167 69.1667,178.833 69.5,179.5C 68.5028,179.47 67.8361,179.97 67.5,181C 68.6773,186.033 70.344,190.866 72.5,195.5C 72.5,195.833 72.5,196.167 72.5,196.5C 69.6381,193.443 67.8047,189.776 67,185.5C 66.5026,182.854 66.3359,180.187 66.5,177.5 Z"/></g>
<g><path style="opacity:1" fill="#dac356" d="M 68.5,177.5 C 69.8333,177.833 71.1667,178.167 72.5,178.5C 77.4522,181.325 82.7856,183.491 88.5,185C 106.808,188.114 125.141,188.281 143.5,185.5C 143.5,185.833 143.5,186.167 143.5,186.5C 139.922,186.549 136.589,187.215 133.5,188.5C 121.495,188.667 109.495,188.5 97.5,188C 87.701,186.595 78.3677,183.761 69.5,179.5C 69.1667,178.833 68.8333,178.167 68.5,177.5 Z"/></g>
<g><path style="opacity:1" fill="#8154aa" d="M 166.5,178.5 C 166.063,180.074 165.063,181.241 163.5,182C 165.119,182.236 166.119,183.069 166.5,184.5C 164.833,184.5 163.167,184.5 161.5,184.5C 161.263,185.791 161.596,186.791 162.5,187.5C 165.96,189.113 166.46,191.446 164,194.5C 162.603,196.07 161.103,197.404 159.5,198.5C 156.299,200.177 152.965,201.677 149.5,203C 146.518,203.498 143.518,203.665 140.5,203.5C 139.508,203.672 138.842,203.338 138.5,202.5C 138.616,199.14 138.949,195.807 139.5,192.5C 137.067,192.273 135.401,193.273 134.5,195.5C 132.37,197.127 130.37,198.96 128.5,201C 123.487,202.685 120.154,201.185 118.5,196.5C 118.5,194.5 118.5,192.5 118.5,190.5C 123.5,189.833 128.5,189.167 133.5,188.5C 136.187,188.664 138.854,188.497 141.5,188C 142.416,187.722 143.082,187.222 143.5,186.5C 150.551,186.482 156.885,184.482 162.5,180.5C 163.514,179.326 164.847,178.66 166.5,178.5 Z"/></g>
<g><path style="opacity:1" fill="#6e5391" d="M 175.5,190.5 C 176.833,189.167 178.167,189.167 179.5,190.5C 180.234,191.708 180.567,193.041 180.5,194.5C 179.674,199.316 179.174,204.316 179,209.5C 177.961,210.71 176.794,211.71 175.5,212.5C 175.5,211.5 175.5,210.5 175.5,209.5C 176.75,209.423 177.583,208.756 178,207.5C 178.121,201.76 178.288,196.093 178.5,190.5C 177.5,190.5 176.5,190.5 175.5,190.5 Z"/></g>
<g><path style="opacity:1" fill="#7b6776" d="M 174.5,191.5 C 174.472,196.862 174.806,202.195 175.5,207.5C 173.994,204.644 173.328,201.477 173.5,198C 173.504,195.639 173.837,193.473 174.5,191.5 Z"/></g>
<g><path style="opacity:1" fill="#d1cc3c" d="M 179.5,190.5 C 178.167,189.167 176.833,189.167 175.5,190.5C 174.833,190.5 174.5,190.833 174.5,191.5C 173.837,193.473 173.504,195.639 173.5,198C 173.328,201.477 173.994,204.644 175.5,207.5C 175.5,208.167 175.5,208.833 175.5,209.5C 175.5,210.5 175.5,211.5 175.5,212.5C 172.764,215.244 169.764,217.577 166.5,219.5C 161.924,220.81 157.257,221.81 152.5,222.5C 146.738,222.851 141.072,222.351 135.5,221C 132.653,218.429 131.987,215.429 133.5,212C 141.255,211.082 148.588,208.749 155.5,205C 156.696,204.346 156.696,203.846 155.5,203.5C 146.104,208.276 136.104,210.942 125.5,211.5C 123.191,215.118 122.024,219.118 122,223.5C 121.25,224.126 120.416,224.626 119.5,225C 112.897,226.274 106.23,226.774 99.5,226.5C 98.8333,226.5 98.5,226.167 98.5,225.5C 99.7915,222.599 101.792,220.266 104.5,218.5C 105.705,217.005 105.705,215.672 104.5,214.5C 103.751,212.754 102.417,211.754 100.5,211.5C 98.664,212.396 96.9974,213.396 95.5,214.5C 94.1667,214.5 92.8333,214.5 91.5,214.5C 91.3505,213.448 91.5172,212.448 92,211.5C 102.594,204.057 101.761,198.057 89.5,193.5C 84.8747,190.544 80.5413,190.877 76.5,194.5C 75.2921,195.234 73.9587,195.567 72.5,195.5C 70.344,190.866 68.6773,186.033 67.5,181C 67.8361,179.97 68.5028,179.47 69.5,179.5C 71.428,181.474 73.7613,182.974 76.5,184C 85.501,187.633 94.8343,189.8 104.5,190.5C 108.634,191.485 112.968,191.818 117.5,191.5C 117.216,193.415 117.549,195.081 118.5,196.5C 120.154,201.185 123.487,202.685 128.5,201C 130.37,198.96 132.37,197.127 134.5,195.5C 135.941,197.724 137.274,200.058 138.5,202.5C 138.842,203.338 139.508,203.672 140.5,203.5C 147.75,205.363 154.083,203.696 159.5,198.5C 161.103,197.404 162.603,196.07 164,194.5C 166.46,191.446 165.96,189.113 162.5,187.5C 165.684,185.586 169.351,184.92 173.5,185.5C 173.802,182.941 173.468,180.607 172.5,178.5C 172.351,177.448 172.517,176.448 173,175.5C 178.047,172.12 182.047,167.786 185,162.5C 186.015,171.61 184.849,180.444 181.5,189C 181.164,190.03 180.497,190.53 179.5,190.5 Z"/></g>
<g><path style="opacity:1" fill="#c3b868" d="M 138.5,202.5 C 137.274,200.058 135.941,197.724 134.5,195.5C 135.401,193.273 137.067,192.273 139.5,192.5C 138.949,195.807 138.616,199.14 138.5,202.5 Z"/></g>
<g><path style="opacity:1" fill="#7d7076" d="M 89.5,193.5 C 85.1186,193.372 80.7853,193.705 76.5,194.5C 80.5413,190.877 84.8747,190.544 89.5,193.5 Z"/></g>
<g><path style="opacity:1" fill="#c5b775" d="M 104.5,190.5 C 109.167,190.5 113.833,190.5 118.5,190.5C 118.5,192.5 118.5,194.5 118.5,196.5C 117.549,195.081 117.216,193.415 117.5,191.5C 112.968,191.818 108.634,191.485 104.5,190.5 Z"/></g>
<g><path style="opacity:1" fill="#49590b" d="M 69.5,179.5 C 78.3677,183.761 87.701,186.595 97.5,188C 109.495,188.5 121.495,188.667 133.5,188.5C 128.5,189.167 123.5,189.833 118.5,190.5C 113.833,190.5 109.167,190.5 104.5,190.5C 94.8343,189.8 85.501,187.633 76.5,184C 73.7613,182.974 71.428,181.474 69.5,179.5 Z"/></g>
<g><path style="opacity:1" fill="#3a3526" d="M 143.5,186.5 C 143.082,187.222 142.416,187.722 141.5,188C 138.854,188.497 136.187,188.664 133.5,188.5C 136.589,187.215 139.922,186.549 143.5,186.5 Z"/></g>
<g><path style="opacity:1" fill="#46373d" d="M 162.5,180.5 C 156.885,184.482 150.551,186.482 143.5,186.5C 143.5,186.167 143.5,185.833 143.5,185.5C 145.527,185.662 147.527,185.495 149.5,185C 153.653,182.921 157.986,181.421 162.5,180.5 Z"/></g>
<g><path style="opacity:1" fill="#8455ae" d="M 89.5,193.5 C 101.761,198.057 102.594,204.057 92,211.5C 91.5172,212.448 91.3505,213.448 91.5,214.5C 92.8333,214.5 94.1667,214.5 95.5,214.5C 98.5,214.5 101.5,214.5 104.5,214.5C 105.705,215.672 105.705,217.005 104.5,218.5C 101.792,220.266 99.7915,222.599 98.5,225.5C 94.1405,224.993 89.8072,224.327 85.5,223.5C 84.089,221.461 82.089,220.461 79.5,220.5C 76.8075,217.419 75.8075,213.753 76.5,209.5C 79.9093,204.028 78.576,199.694 72.5,196.5C 72.5,196.167 72.5,195.833 72.5,195.5C 73.9587,195.567 75.2921,195.234 76.5,194.5C 80.7853,193.705 85.1186,193.372 89.5,193.5 Z"/></g>
<g><path style="opacity:1" fill="#b6b060" d="M 159.5,198.5 C 154.083,203.696 147.75,205.363 140.5,203.5C 143.518,203.665 146.518,203.498 149.5,203C 152.965,201.677 156.299,200.177 159.5,198.5 Z"/></g>
<g><path style="opacity:1" fill="#3b2527" d="M 72.5,196.5 C 78.576,199.694 79.9093,204.028 76.5,209.5C 76.4332,207.599 76.7665,205.766 77.5,204C 75.6006,201.611 73.9339,199.111 72.5,196.5 Z"/></g>
<g><path style="opacity:1" fill="#8653b5" d="M 175.5,190.5 C 176.5,190.5 177.5,190.5 178.5,190.5C 178.288,196.093 178.121,201.76 178,207.5C 177.583,208.756 176.75,209.423 175.5,209.5C 175.5,208.833 175.5,208.167 175.5,207.5C 174.806,202.195 174.472,196.862 174.5,191.5C 174.5,190.833 174.833,190.5 175.5,190.5 Z"/></g>
<g><path style="opacity:1" fill="#7e608a" d="M 104.5,214.5 C 101.5,214.5 98.5,214.5 95.5,214.5C 96.9974,213.396 98.664,212.396 100.5,211.5C 102.417,211.754 103.751,212.754 104.5,214.5 Z"/></g>
<g><path style="opacity:1" fill="#494715" d="M 152.5,222.5 C 149.375,223.479 146.042,223.813 142.5,223.5C 141.5,223.5 140.5,223.5 139.5,223.5C 132.939,223.434 130.106,220.101 131,213.5C 128.224,211.86 126.224,212.527 125,215.5C 124.788,218.758 124.288,221.924 123.5,225C 120.042,226.8 116.376,227.966 112.5,228.5C 108.167,227.833 103.833,227.167 99.5,226.5C 106.23,226.774 112.897,226.274 119.5,225C 120.416,224.626 121.25,224.126 122,223.5C 122.024,219.118 123.191,215.118 125.5,211.5C 136.104,210.942 146.104,208.276 155.5,203.5C 156.696,203.846 156.696,204.346 155.5,205C 148.588,208.749 141.255,211.082 133.5,212C 131.987,215.429 132.653,218.429 135.5,221C 141.072,222.351 146.738,222.851 152.5,222.5 Z"/></g>
<g><path style="opacity:1" fill="#251c09" d="M 180.5,194.5 C 180.5,195.167 180.5,195.833 180.5,196.5C 180.666,201.179 180.499,205.845 180,210.5C 177.253,213.754 174.086,216.42 170.5,218.5C 169.292,219.234 167.959,219.567 166.5,219.5C 169.764,217.577 172.764,215.244 175.5,212.5C 176.794,211.71 177.961,210.71 179,209.5C 179.174,204.316 179.674,199.316 180.5,194.5 Z"/></g>
<g><path style="opacity:1" fill="#3a2a11" d="M 76.5,209.5 C 75.8075,213.753 76.8075,217.419 79.5,220.5C 73.9901,218.131 72.9901,214.464 76.5,209.5 Z"/></g>
<g><path style="opacity:1" fill="#311d15" d="M 79.5,220.5 C 82.089,220.461 84.089,221.461 85.5,223.5C 84.8333,223.5 84.1667,223.5 83.5,223.5C 83.1667,223.5 82.8333,223.5 82.5,223.5C 81.3065,222.728 80.3065,221.728 79.5,220.5 Z"/></g>
<g><path style="opacity:1" fill="#351c0f" d="M 166.5,219.5 C 159.143,223.604 151.143,225.27 142.5,224.5C 142.5,224.167 142.5,223.833 142.5,223.5C 146.042,223.813 149.375,223.479 152.5,222.5C 157.257,221.81 161.924,220.81 166.5,219.5 Z"/></g>
<g><path style="opacity:1" fill="#351818" d="M 85.5,223.5 C 89.8072,224.327 94.1405,224.993 98.5,225.5C 98.5,226.167 98.8333,226.5 99.5,226.5C 103.833,227.167 108.167,227.833 112.5,228.5C 112.167,228.5 111.833,228.5 111.5,228.5C 106.489,228.666 101.489,228.499 96.5,228C 92.3812,227.356 88.7145,225.856 85.5,223.5 Z"/></g>
<g><path style="opacity:1" fill="#f79a85" d="M 170.5,218.5 C 170.672,219.492 170.338,220.158 169.5,220.5C 166.398,225.593 163.565,230.926 161,236.5C 156.912,240.487 152.412,241.153 147.5,238.5C 145.226,234.286 143.226,229.953 141.5,225.5C 141.624,224.893 141.957,224.56 142.5,224.5C 151.143,225.27 159.143,223.604 166.5,219.5C 167.959,219.567 169.292,219.234 170.5,218.5 Z"/></g>
<g><path style="opacity:1" fill="#db5b23" d="M 169.5,220.5 C 167.302,226.586 164.802,232.586 162,238.5C 160.082,239.542 158.249,240.708 156.5,242C 152.409,243.227 148.909,242.394 146,239.5C 143.562,234.288 141.395,228.955 139.5,223.5C 140.5,223.5 141.5,223.5 142.5,223.5C 142.5,223.833 142.5,224.167 142.5,224.5C 141.957,224.56 141.624,224.893 141.5,225.5C 143.226,229.953 145.226,234.286 147.5,238.5C 152.412,241.153 156.912,240.487 161,236.5C 163.565,230.926 166.398,225.593 169.5,220.5 Z"/></g>
<g><path style="opacity:1" fill="#f89885" d="M 83.5,223.5 C 84.1667,223.5 84.8333,223.5 85.5,223.5C 88.7145,225.856 92.3812,227.356 96.5,228C 101.489,228.499 106.489,228.666 111.5,228.5C 111.5,228.833 111.5,229.167 111.5,229.5C 110.178,229.33 109.011,229.663 108,230.5C 105.641,235.533 102.474,240.033 98.5,244C 91.9543,248.313 87.4543,246.813 85,239.5C 84.1697,234.192 83.6697,228.859 83.5,223.5 Z"/></g>
<g><path style="opacity:1" fill="#d95a1c" d="M 82.5,223.5 C 82.8333,223.5 83.1667,223.5 83.5,223.5C 83.6697,228.859 84.1697,234.192 85,239.5C 87.4543,246.813 91.9543,248.313 98.5,244C 102.474,240.033 105.641,235.533 108,230.5C 109.011,229.663 110.178,229.33 111.5,229.5C 107.833,234.833 104.167,240.167 100.5,245.5C 98.3245,247.031 95.8245,247.697 93,247.5C 89.7077,247.974 87.0411,246.974 85,244.5C 82.7195,237.721 81.8861,230.721 82.5,223.5 Z"/></g>
</svg>
